<?xml version="1.0" encoding="utf-8"?>
<!-- Generator: Adobe Illustrator 21.1.0, SVG Export Plug-In . SVG Version: 6.00 Build 0)  -->
<svg version="1.1" id="Layer_1" xmlns="http://www.w3.org/2000/svg" xmlns:xlink="http://www.w3.org/1999/xlink" x="0px" y="0px"
	 viewBox="0 0 372 53" style="enable-background:new 0 0 372 53;" xml:space="preserve">
<style type="text/css">
	.st0{fill:#FFFDFF;}
	.st1{fill:#FFFFFF;}
</style>
<g>
	<g>
		<path class="st1" d="M25.4,3.9C38.5,3.9,49,14.4,49,27.5C49,40.6,38.5,51,25.4,51S1.9,40.6,1.9,27.5C1.9,14.4,12.3,3.9,25.4,3.9z
			 M25.4,42.5c8.2,0,15-6.7,15-15s-6.8-15.1-15-15.1s-15,6.9-15,15.1S17.2,42.5,25.4,42.5z"/>
		<path class="st1" d="M64.3,5.8c0-0.7,0.6-1.2,1.2-1.2h6.2c0.7,0,1.2,0.6,1.2,1.2v26.7c0,5.6,3.8,9.9,9.5,9.9
			c5.7,0,9.5-4.4,9.5-9.9V5.8c0-0.7,0.5-1.2,1.2-1.2h6.2c0.7,0,1.2,0.6,1.2,1.2V33c0,9.9-7.9,18-18.2,18c-10.3,0-18.2-8-18.2-18V5.8
			z"/>
		<path class="st1" d="M112.7,48.6l20.3-44c0.2-0.4,0.5-0.7,1.1-0.7h0.7c0.7,0,0.9,0.3,1.1,0.7l20.1,44c0.4,0.9-0.1,1.7-1.1,1.7
			h-5.7c-1,0-1.4-0.4-1.9-1.3l-3.2-7.1h-19.6l-3.2,7.1c-0.3,0.7-0.9,1.3-1.9,1.3h-5.7C112.9,50.3,112.3,49.5,112.7,48.6z M141,34.7
			l-6.5-14.4h-0.2l-6.4,14.4H141z"/>
		<path class="st1" d="M169.4,5c0-0.7,0.6-1.2,1.2-1.2h1.6l27.2,28.9h0.1v-27c0-0.7,0.5-1.2,1.2-1.2h6c0.7,0,1.2,0.6,1.2,1.2v44
			c0,0.7-0.6,1.2-1.2,1.2h-1.6l-27.3-30h-0.1v28.1c0,0.7-0.5,1.2-1.2,1.2h-6c-0.7,0-1.2-0.6-1.2-1.2V5z"/>
		<path class="st1" d="M233.5,12.4h-10c-0.7,0-1.2-0.6-1.2-1.2V5.8c0-0.7,0.5-1.2,1.2-1.2h28.6c0.7,0,1.2,0.6,1.2,1.2v5.4
			c0,0.7-0.5,1.2-1.2,1.2h-10v36.7c0,0.7-0.6,1.2-1.2,1.2h-6.1c-0.7,0-1.2-0.6-1.2-1.2V12.4z"/>
		<path class="st1" d="M266.9,5.8c0-0.7,0.6-1.2,1.2-1.2h6.2c0.7,0,1.2,0.6,1.2,1.2v26.7c0,5.6,3.8,9.9,9.5,9.9
			c5.7,0,9.5-4.4,9.5-9.9V5.8c0-0.7,0.5-1.2,1.2-1.2h6.2c0.7,0,1.2,0.6,1.2,1.2V33c0,9.9-7.9,18-18.2,18c-10.3,0-18.2-8-18.2-18V5.8
			z"/>
		<path class="st1" d="M326.7,4.9c0.1-0.5,0.5-1,1.2-1h1c0.5,0,0.9,0.3,1.1,0.7l14.4,30.9c0.1,0,0.1,0,0.2,0l14.4-30.9
			c0.2-0.4,0.5-0.7,1.1-0.7h1c0.7,0,1.1,0.5,1.2,1l7.7,43.9c0.2,0.9-0.3,1.5-1.2,1.5h-6c-0.6,0-1.1-0.5-1.2-1l-3.9-24.8
			c-0.1,0-0.2,0-0.2,0l-11.4,25.7c-0.1,0.4-0.5,0.7-1.1,0.7h-1.2c-0.6,0-0.9-0.3-1.1-0.7l-11.6-25.7c0,0-0.1,0-0.2,0l-3.8,24.8
			c-0.1,0.5-0.6,1-1.2,1h-5.9c-0.9,0-1.4-0.6-1.2-1.5L326.7,4.9z"/>
	</g>
	<g>
		<path class="st1" d="M45.4,51.6c-2-1-4.2-2-6.6-3c-2.8-1.1-5-2-6.5-2.5c-0.2-1.2-0.7-3.5-1.5-6.8c-0.7-2.7-1.4-5-2.1-7
			c0.6,0.4,1.4,0.8,2.4,1.2c1.6,0.7,3.6,1.6,5.8,2.5c0.5,0.2,2.1,0.8,4.9,1.9c0.3,1.8,0.9,4.2,1.6,7.4
			C44.1,47.6,44.7,49.7,45.4,51.6z"/>
	</g>
</g>
</svg>
