<?xml version="1.0" encoding="utf-8"?>
<!-- Generator: Adobe Illustrator 21.1.0, SVG Export Plug-In . SVG Version: 6.00 Build 0)  -->
<svg version="1.1" id="Layer_1" xmlns="http://www.w3.org/2000/svg" xmlns:xlink="http://www.w3.org/1999/xlink" x="0px" y="0px"
	 viewBox="0 0 372 53" style="enable-background:new 0 0 372 53;" xml:space="preserve">
<style type="text/css">
	.st0{fill:#FFFDFF;}
</style>
<g>
	<g>
		<path class="st0" d="M25.1,1.9c13.1,0,23.5,10.5,23.5,23.6C48.6,38.6,38.2,49,25.1,49C12,49,1.6,38.6,1.6,25.5
			C1.6,12.4,12,1.9,25.1,1.9z M25.1,44.4c10.4,0,19-8.5,19-18.9s-8.6-19-19-19s-18.9,8.6-18.9,19S14.7,44.4,25.1,44.4z"/>
		<path class="st0" d="M65.4,3.8c0-0.7,0.6-1.2,1.2-1.2h2.5c0.7,0,1.2,0.6,1.2,1.2V31c0,7.5,4.6,13.3,12.3,13.3
			c7.7,0,12.4-5.7,12.4-13.1V3.8c0-0.7,0.5-1.2,1.2-1.2h2.5c0.7,0,1.2,0.6,1.2,1.2v27.7c0,9.9-7.1,17.5-17.4,17.5
			c-10.3,0-17.3-7.6-17.3-17.5V3.8z"/>
		<path class="st0" d="M113.5,46.6l19.9-44c0.2-0.4,0.5-0.7,1.1-0.7h0.7c0.6,0,0.9,0.3,1.1,0.7l19.8,44c0.4,0.9-0.1,1.7-1.1,1.7
			h-2.6c-0.6,0-1-0.4-1.1-0.7l-4.8-10.8h-23.2l-4.8,10.8c-0.1,0.3-0.5,0.7-1.1,0.7h-2.6C113.6,48.3,113.1,47.5,113.5,46.6z
			 M144.6,32.7c-3.2-7.1-6.3-14.3-9.5-21.5h-0.5L125,32.7H144.6z"/>
		<path class="st0" d="M170.5,3c0-0.7,0.6-1.2,1.2-1.2h1.6l29.5,36.8c0.1,0,0.1,0,0.1,0V3.8c0-0.7,0.5-1.2,1.2-1.2h2.3
			c0.7,0,1.2,0.6,1.2,1.2v44c0,0.7-0.6,1.2-1.2,1.2h-1.2l-30-37.5h-0.1v35.6c0,0.7-0.5,1.2-1.2,1.2h-2.3c-0.7,0-1.2-0.6-1.2-1.2V3z"
			/>
		<path class="st0" d="M235,6.9h-11.4c-0.7,0-1.2-0.6-1.2-1.2V3.8c0-0.7,0.5-1.2,1.2-1.2h27.7c0.7,0,1.2,0.6,1.2,1.2v1.9
			c0,0.7-0.5,1.2-1.2,1.2H240v40.2c0,0.7-0.6,1.2-1.2,1.2h-2.5c-0.7,0-1.2-0.6-1.2-1.2V6.9z"/>
		<path class="st0" d="M266.6,3.8c0-0.7,0.6-1.2,1.2-1.2h2.5c0.7,0,1.2,0.6,1.2,1.2V31c0,7.5,4.6,13.3,12.3,13.3
			c7.7,0,12.4-5.7,12.4-13.1V3.8c0-0.7,0.5-1.2,1.2-1.2h2.5c0.7,0,1.2,0.6,1.2,1.2v27.7c0,9.9-7.1,17.5-17.4,17.5
			c-10.3,0-17.3-7.6-17.3-17.5V3.8z"/>
		<path class="st0" d="M326.6,2.8c0.1-0.5,0.7-0.9,1.2-0.9h1c0.5,0,1,0.3,1.1,0.7l12.9,36c0.1,0,0.2,0,0.3,0l12.8-36
			c0.1-0.4,0.7-0.7,1.1-0.7h1c0.5,0,1,0.4,1.2,0.9l8.4,43.9c0.2,0.9-0.2,1.6-1.2,1.6h-2.6c-0.5,0-1-0.5-1.2-0.9l-5.8-33.7
			c-0.1,0-0.2,0-0.3,0l-12,34.5c-0.1,0.4-0.7,0.7-1.1,0.7h-1.2c-0.4,0-1-0.3-1.1-0.7l-12.2-34.5c-0.1,0-0.2,0-0.3,0l-5.7,33.7
			c-0.1,0.5-0.7,0.9-1.2,0.9h-2.6c-1,0-1.4-0.7-1.2-1.6L326.6,2.8z"/>
	</g>
	<g>
		<path class="st0" d="M31,32.5c1.7,0.9,3.6,1.8,5.7,2.6c2.4,1,4.3,1.7,5.7,2.2c0.2,1.1,0.6,3.1,1.3,5.9c0.6,2.3,1.2,4.4,1.8,6.1
			c-0.6-0.3-1.3-0.7-2.1-1c-1.4-0.6-3.1-1.4-5-2.2c-0.4-0.2-1.9-0.7-4.3-1.6c-0.3-1.6-0.8-3.7-1.4-6.4C32.1,36.1,31.6,34.2,31,32.5z
			"/>
	</g>
</g>
</svg>
